{"title":"Before.The.Devil.Knows.Youre.Dead.2007.LIMITED.720p.Bluray.x264.","uid":6927831,"size":733406091,"categoryP":"video","categoryS":"hd___movies","magnet":"?xt=urn:btih:fb635293a1abb39c2a207df7f16cf0b8801bdc4f&amp;dn=Before.The.Devil.Knows.Youre.Dead.2007.LIMITED.720p.Bluray.x264.&amp;tr=udp%3A%2F%2Ftracker.openbittorrent.com%3A80&amp;tr=udp%3A%2F%2Fopen.demonii.com%3A1337&amp;tr=udp%3A%2F%2Ftracker.coppersurfer.tk%3A6969&amp;tr=udp%3A%2F%2Fexodus.desync.com%3A6969","seeders":12,"leechers":0,"uploader":"anoXmous","files":-1,"time":1325575000,"description":"Before.The.Devil.Knows.Youre.Dead.2007.LIMITED.720p.Bluray.x264.anoXmous\n\nFormat                           : MPEG-4\nFormat profile                   : Base Media\nCodec ID                         : isom\nFile size                        : 699 MiB\nDuration                         : 1h 56mn\nOverall bit rate mode            : Variable\nOverall bit rate                 : 838 Kbps\n\n\nVideo\nID                               : 1\nFormat                           : AVC\nFormat/Info                      : Advanced Video Codec\nFormat profile                   : &lt;a class=&quot;__cf_email__&quot; href=&quot;/cdn-cgi/l/email-protection&quot; data-cfemail=&quot;feb6979996beb2cad0cf&quot;&gt;[email&amp;#160;protected]&lt;/a&gt;&lt;script cf-hash='f9e31' type=&quot;text/javascript&quot;&gt;\n/* &lt;![CDATA[ */!function(){try{var t=&quot;currentScript&quot;in document?document.currentScript:function(){for(var t=document.getElementsByTagName(&quot;script&quot;),e=t.length;e--;)if(t[e].getAttribute(&quot;cf-hash&quot;))return t[e]}();if(t&amp;&amp;t.previousSibling){var e,r,n,i,c=t.previousSibling,a=c.getAttribute(&quot;data-cfemail&quot;);if(a){for(e=&quot;&quot;,r=parseInt(a.substr(0,2),16),n=2;a.length-n;n+=2)i=parseInt(a.substr(n,2),16)^r,e+=String.fromCharCode(i);e=document.createTextNode(e),c.parentNode.replaceChild(e,c)}}}catch(u){}}();/* ]]&gt; */&lt;/script&gt;\nFormat settings, CABAC           : Yes\nFormat settings, ReFrames        : 4 frames\nCodec ID                         : avc1\nCodec ID/Info                    : Advanced Video Coding\nDuration                         : 1h 56mn\nBit rate                         : 768 Kbps\nMaximum bit rate                 : 6 688 Kbps\nWidth                            : 1 280 pixels\nHeight                           : 688 pixels\nDisplay aspect ratio             : 1.860\nFrame rate mode                  : Constant\nFrame rate                       : 23.976 fps\nColor space                      : YUV\nChroma subsampling               : 4:2:0\nBit depth                        : 8 bits\nScan type                        : Progressive\nBits/(Pixel*Frame)               : 0.036\nStream size                      : 641 MiB (92%)\nWriting library                  : x264 core 120 r2120 0c7dab9\n\n\nAudio\nID                               : 2\nFormat                           : AAC\nFormat/Info                      : Advanced Audio Codec\nFormat profile                   : LC\nCodec ID                         : 40\nDuration                         : 1h 56mn\nBit rate mode                    : Variable\nBit rate                         : 66.2 Kbps\nMaximum bit rate                 : 91.1 Kbps\nChannel(s)                       : 2 channels\nChannel positions                : Front: L R\nSampling rate                    : 48.0 KHz \nCompression mode                 : Lossy\nStream size                      : 56.2 MiB (8%)\n\n                     SUB         :\n\nBefore.The.Devil.Knows.Youre.Dead.2007.LIMITED.720p.Bluray.x264.anoXmous_eng.srt\nBefore.The.Devil.Knows.Youre.Dead.2007.LIMITED.720p.Bluray.x264.anoXmous_swe.srt\n\n        &lt;a href=&quot; http://www.imdb.com/title/tt0292963/&quot; rel=&quot;nofollow&quot; target=&quot;_NEW&quot;&gt; http://www.imdb.com/title/tt0292963/&lt;/a&gt;\n\n         This work very fine with PSP and XBOX\t\t\t\t\t \n","torrent":{"xt":"urn:btih:fb635293a1abb39c2a207df7f16cf0b8801bdc4f","amp;dn":"Before.The.Devil.Knows.Youre.Dead.2007.LIMITED.720p.Bluray.x264.","amp;tr":["udp%3A%2F%2Ftracker.openbittorrent.com%3A80","udp%3A%2F%2Fopen.demonii.com%3A1337","udp%3A%2F%2Ftracker.coppersurfer.tk%3A6969","udp%3A%2F%2Fexodus.desync.com%3A6969"],"infoHash":"fb635293a1abb39c2a207df7f16cf0b8801bdc4f","infoHashBuffer":{"type":"Buffer","data":[251,99,82,147,161,171,179,156,42,32,125,247,241,108,240,184,128,27,220,79]},"announce":[],"urlList":[]}}